<svg width="50" height="50" fill="none" xmlns="http://www.w3.org/2000/svg"><g clip-path="url(#clip0)" fill="#fff"><path d="M7.813 6.25a1.562 1.562 0 100 3.125h.768a1.562 1.562 0 011.5 1.134l4.957 17.344a4.687 4.687 0 004.506 3.397h14.278a4.687 4.687 0 004.353-2.947l4.606-11.519a3.124 3.124 0 00-2.9-4.284H13.9l-.816-2.85a4.688 4.688 0 00-4.503-3.4h-.768zm10.23 20.74l-3.25-11.365h25.085l-4.606 11.519a1.562 1.562 0 01-1.45.981H19.544a1.563 1.563 0 01-1.5-1.134zm2.27 16.76a4.687 4.687 0 100-9.373 4.687 4.687 0 000 9.373zm0-3.125a1.563 1.563 0 110-3.126 1.563 1.563 0 010 3.126zm12.5 3.125a4.687 4.687 0 100-9.373 4.687 4.687 0 000 9.373zm0-3.125a1.563 1.563 0 110-3.126 1.563 1.563 0 010 3.126z"/></g><defs><clipPath id="clip0"><path fill="#fff" d="M0 0h50v50H0z"/></clipPath></defs></svg>