<svg width="298" height="175" fill="none" xmlns="http://www.w3.org/2000/svg"><path d="M75.92 54.75H58.045L54.635 63h-9.13l17.16-38.5h8.8L88.68 63h-9.35l-3.41-8.25zm-2.805-6.765l-6.105-14.74-6.105 14.74h12.21zm31.659 3.41l-4.125 4.07V63h-8.58V22.19h8.58v23.1l12.54-11.88h10.23l-12.32 12.54L124.519 63h-10.395l-9.35-11.605zm51.255-17.985L143.544 63h-8.855l-12.43-29.59h8.855l8.195 20.13 8.47-20.13h8.25zm14.47-.44c4.583 0 8.103 1.1 10.56 3.3 2.456 2.163 3.685 5.445 3.685 9.845V63h-8.03v-3.685c-1.614 2.75-4.62 4.125-9.02 4.125-2.274 0-4.254-.385-5.94-1.155-1.65-.77-2.915-1.833-3.795-3.19-.88-1.357-1.32-2.897-1.32-4.62 0-2.75 1.026-4.913 3.08-6.49 2.09-1.577 5.298-2.365 9.625-2.365h6.82c0-1.87-.569-3.3-1.705-4.29-1.137-1.027-2.842-1.54-5.115-1.54-1.577 0-3.135.257-4.675.77-1.504.477-2.787 1.137-3.85 1.98l-3.08-5.995c1.613-1.137 3.538-2.017 5.775-2.64a26.291 26.291 0 016.985-.935zm-.66 24.695c1.466 0 2.768-.33 3.905-.99 1.136-.697 1.943-1.705 2.42-3.025v-3.025h-5.885c-3.52 0-5.28 1.155-5.28 3.465 0 1.1.421 1.98 1.265 2.64.88.623 2.071.935 3.575.935zM59.475 98.65v10.175h17.82v7.15h-17.82V130h-8.91V91.5H79.66v7.15H59.475zm53.845 16.665c0 .11-.055.88-.165 2.31H90.77c.403 1.833 1.357 3.282 2.86 4.345 1.503 1.063 3.373 1.595 5.61 1.595 1.54 0 2.897-.22 4.07-.66 1.21-.477 2.328-1.21 3.355-2.2l4.565 4.95c-2.787 3.19-6.857 4.785-12.21 4.785-3.337 0-6.288-.642-8.855-1.925-2.567-1.32-4.547-3.135-5.94-5.445-1.393-2.31-2.09-4.932-2.09-7.865 0-2.897.678-5.5 2.035-7.81 1.393-2.347 3.282-4.162 5.665-5.445 2.42-1.32 5.115-1.98 8.085-1.98 2.897 0 5.518.623 7.865 1.87 2.347 1.247 4.18 3.043 5.5 5.39 1.357 2.31 2.035 5.005 2.035 8.085zm-15.345-8.855c-1.943 0-3.575.55-4.895 1.65-1.32 1.1-2.127 2.603-2.42 4.51h14.575c-.293-1.87-1.1-3.355-2.42-4.455-1.32-1.137-2.933-1.705-4.84-1.705zm29.252-2.145c1.027-1.43 2.402-2.512 4.125-3.245 1.76-.733 3.777-1.1 6.05-1.1v7.92c-.953-.073-1.595-.11-1.925-.11-2.456 0-4.381.697-5.775 2.09-1.393 1.357-2.09 3.41-2.09 6.16V130h-8.58v-29.59h8.195v3.905zm53.172-4.345c3.703 0 6.637 1.1 8.8 3.3 2.2 2.163 3.3 5.427 3.3 9.79V130h-8.58v-15.62c0-2.347-.495-4.088-1.485-5.225-.953-1.173-2.328-1.76-4.125-1.76-2.017 0-3.612.66-4.785 1.98-1.173 1.283-1.76 3.208-1.76 5.775V130h-8.58v-15.62c0-4.657-1.87-6.985-5.61-6.985-1.98 0-3.557.66-4.73 1.98-1.173 1.283-1.76 3.208-1.76 5.775V130h-8.58v-29.59h8.195v3.41c1.1-1.247 2.438-2.2 4.015-2.86 1.613-.66 3.373-.99 5.28-.99 2.09 0 3.978.422 5.665 1.265a9.836 9.836 0 014.07 3.575c1.21-1.54 2.732-2.732 4.565-3.575 1.87-.843 3.905-1.265 6.105-1.265zm31.725 0c4.584 0 8.104 1.1 10.56 3.3 2.457 2.163 3.685 5.445 3.685 9.845V130h-8.03v-3.685c-1.613 2.75-4.62 4.125-9.02 4.125-2.273 0-4.253-.385-5.94-1.155-1.65-.77-2.915-1.833-3.795-3.19-.88-1.357-1.32-2.897-1.32-4.62 0-2.75 1.027-4.913 3.08-6.49 2.09-1.577 5.299-2.365 9.625-2.365h6.82c0-1.87-.568-3.3-1.705-4.29-1.136-1.027-2.841-1.54-5.115-1.54a14.71 14.71 0 00-4.675.77c-1.503.477-2.786 1.137-3.85 1.98l-3.08-5.995c1.614-1.137 3.539-2.017 5.775-2.64a26.315 26.315 0 016.985-.935zm-.66 24.695c1.467 0 2.769-.33 3.905-.99 1.137-.697 1.944-1.705 2.42-3.025v-3.025h-5.885c-3.52 0-5.28 1.155-5.28 3.465 0 1.1.422 1.98 1.265 2.64.88.623 2.072.935 3.575.935z" fill="#000"/><path fill="#394DFF" d="M17 20h13v106H17zM187.293.137l-.008 9.687-157.284-.137L30.009 0zM0 29h10v76H0z"/><path d="M57.54 156c1.76 0 3.14.42 4.14 1.26 1 .827 1.5 1.98 1.5 3.46 0 1.467-.5 2.62-1.5 3.46-1 .827-2.38 1.24-4.14 1.24h-4V170h-1.02v-14h5.02zm0 8.5c1.493 0 2.633-.327 3.42-.98.787-.653 1.18-1.587 1.18-2.8 0-1.213-.393-2.147-1.18-2.8-.787-.667-1.927-1-3.42-1h-4v7.58h4zm12.334-1.14c1.293.013 2.28.3 2.96.86.68.547 1.02 1.353 1.02 2.42 0 1.107-.36 1.953-1.08 2.54-.72.587-1.76.873-3.12.86l-3.9-.04v-10.44h1v3.76l3.12.04zm5.9-3.8h1V170h-1v-10.44zm-6.16 9.68c1.066.013 1.873-.2 2.42-.64.546-.44.82-1.093.82-1.96 0-.84-.267-1.46-.8-1.86-.534-.413-1.347-.633-2.44-.66l-2.86-.02v5.1l2.86.04zm16.292-9.52c.974 0 1.834.22 2.58.66a4.538 4.538 0 011.78 1.8c.427.773.64 1.667.64 2.68 0 1.013-.22 1.92-.66 2.72a4.691 4.691 0 01-1.82 1.86c-.773.44-1.66.66-2.66.66-1.146 0-2.126-.28-2.94-.84-.8-.56-1.413-1.353-1.84-2.38-.413-1.027-.62-2.227-.62-3.6 0-1.56.187-2.853.56-3.88.387-1.027.96-1.833 1.72-2.42.774-.6 1.76-1.047 2.96-1.34l4.62-1.12.16.94-4.4 1.04c-1.08.253-1.96.627-2.64 1.12-.666.48-1.166 1.14-1.5 1.98-.333.84-.506 1.913-.52 3.22.347-.96.927-1.713 1.74-2.26.814-.56 1.76-.84 2.84-.84zm-.12 9.52c.787 0 1.494-.187 2.12-.56a3.867 3.867 0 001.46-1.54c.347-.667.52-1.42.52-2.26 0-.84-.173-1.58-.52-2.22a3.605 3.605 0 00-1.46-1.5c-.613-.36-1.32-.54-2.12-.54s-1.513.18-2.14.54a3.604 3.604 0 00-1.46 1.5c-.346.64-.52 1.38-.52 2.22 0 .84.174 1.593.52 2.26a3.866 3.866 0 001.46 1.54c.627.373 1.34.56 2.14.56zm11.945-4.08h-2.54V170h-1v-10.44h1v4.74h2.54l3.94-4.74h1.1l-4.24 5.06 4.56 5.38h-1.2l-4.16-4.84zm7.827-5.6h1v8.9l7.44-8.9h.88V170h-1v-8.9l-7.44 8.9h-.88v-10.44zm22.93 10.52c-.987 0-1.88-.227-2.68-.68a4.932 4.932 0 01-1.86-1.88c-.453-.813-.68-1.727-.68-2.74 0-1.013.227-1.92.68-2.72a4.896 4.896 0 011.86-1.9c.8-.453 1.693-.68 2.68-.68.987 0 1.873.227 2.66.68a4.858 4.858 0 011.88 1.9c.453.8.68 1.707.68 2.72 0 1.013-.227 1.927-.68 2.74a4.894 4.894 0 01-1.88 1.88c-.787.453-1.673.68-2.66.68zm0-.9c.8 0 1.513-.187 2.14-.56a3.925 3.925 0 001.5-1.56c.373-.667.56-1.427.56-2.28 0-.853-.187-1.613-.56-2.28a3.925 3.925 0 00-1.5-1.56c-.627-.373-1.34-.56-2.14-.56s-1.52.187-2.16.56a4.107 4.107 0 00-1.5 1.56c-.36.667-.54 1.427-.54 2.28 0 .853.18 1.613.54 2.28a4.107 4.107 0 001.5 1.56c.64.373 1.36.56 2.16.56zm17.597-9.62V170h-1v-9.54h-7.12V170h-1v-10.44h9.12zm11.297.9h-4.08V170h-1v-9.54h-4.08v-.9h9.16v.9zm5.813 9.62c-.987 0-1.88-.227-2.68-.68a4.932 4.932 0 01-1.86-1.88c-.453-.813-.68-1.727-.68-2.74 0-1.013.227-1.92.68-2.72a4.896 4.896 0 011.86-1.9c.8-.453 1.693-.68 2.68-.68.987 0 1.873.227 2.66.68a4.858 4.858 0 011.88 1.9c.453.8.68 1.707.68 2.72 0 1.013-.227 1.927-.68 2.74a4.894 4.894 0 01-1.88 1.88c-.787.453-1.673.68-2.66.68zm0-.9c.8 0 1.513-.187 2.14-.56a3.925 3.925 0 001.5-1.56c.373-.667.56-1.427.56-2.28 0-.853-.187-1.613-.56-2.28a3.925 3.925 0 00-1.5-1.56c-.627-.373-1.34-.56-2.14-.56s-1.52.187-2.16.56a4.107 4.107 0 00-1.5 1.56c-.36.667-.54 1.427-.54 2.28 0 .853.18 1.613.54 2.28a4.107 4.107 0 001.5 1.56c.64.373 1.36.56 2.16.56zm19.837-9.62V170h-.92v-8.84l-4.54 7.5h-.46l-4.52-7.48V170h-.92v-10.44h.98l4.72 7.9 4.74-7.9h.92z" fill="#000"/></svg>